<svg width="61.000000" height="61.000000" viewBox="0 0 61 61" fill="none" xmlns="http://www.w3.org/2000/svg" xmlns:xlink="http://www.w3.org/1999/xlink">
	<desc>
			Created with Pixso.
	</desc>
	<defs>
		<filter id="filter_69_26_dd" x="0.000000" y="0.000000" width="61.000000" height="61.000000" filterUnits="userSpaceOnUse" color-interpolation-filters="sRGB">
			<feFlood flood-opacity="0" result="BackgroundImageFix"/>
			<feColorMatrix in="SourceAlpha" type="matrix" values="0 0 0 0 0 0 0 0 0 0 0 0 0 0 0 0 0 0 127 0" result="hardAlpha"/>
			<feOffset dx="0" dy="4"/>
			<feGaussianBlur stdDeviation="1.33333"/>
			<feComposite in2="hardAlpha" operator="out" k2="-1" k3="1"/>
			<feColorMatrix type="matrix" values="0 0 0 0 0 0 0 0 0 0 0 0 0 0 0 0 0 0 0.25 0"/>
			<feBlend mode="normal" in2="BackgroundImageFix" result="effect_dropShadow_1"/>
			<feBlend mode="normal" in="SourceGraphic" in2="effect_dropShadow_1" result="shape"/>
		</filter>
	</defs>
	<g filter="url(#filter_69_26_dd)">
		<path d="M49.23 7.76C44.23 2.75 37.57 0 30.5 0C23.42 0 16.76 2.75 11.76 7.76C6.75 12.76 4 19.42 4 26.5C4 33.57 6.75 40.23 11.76 45.23C16.76 50.24 23.42 53 30.5 53C37.57 53 44.23 50.24 49.23 45.23C54.24 40.23 57 33.57 57 26.5C57 19.42 54.24 12.76 49.23 7.76ZM30.5 47.79C18.75 47.79 9.2 38.24 9.2 26.5C9.2 26.48 9.2 26.46 9.2 26.44C9.2 26.43 9.2 26.43 9.2 26.42C9.2 26.41 9.2 26.41 9.2 26.4C9.25 14.8 18.63 5.36 30.21 5.2C30.23 5.2 30.25 5.2 30.28 5.2C30.29 5.2 30.31 5.2 30.32 5.2C30.38 5.2 30.44 5.2 30.5 5.2C42.24 5.2 51.79 14.75 51.79 26.5C51.79 38.24 42.24 47.79 30.5 47.79Z" fill="#FFFFFF" fill-opacity="1.000000" fill-rule="nonzero"/>
		<path d="M46.67 27.77C45.81 27.77 45.11 27.07 45.11 26.21C45.11 25.34 45.81 24.64 46.67 24.64L48.56 24.64C47.68 15.93 40.62 9.03 31.85 8.38L31.85 10.03C31.85 10.89 31.14 11.6 30.28 11.6C29.41 11.6 28.71 10.89 28.71 10.03L28.71 8.42C20.07 9.27 13.19 16.19 12.41 24.85L14.1 24.85C14.97 24.85 15.67 25.56 15.67 26.42C15.67 27.29 14.97 27.99 14.1 27.99L12.39 27.99C13.12 36.79 20.14 43.83 28.93 44.59L28.93 42.6C28.93 41.74 29.63 41.03 30.5 41.03C31.36 41.03 32.06 41.74 32.06 42.6L32.06 44.59C40.93 43.83 47.99 36.68 48.61 27.77L46.67 27.77ZM36.84 22.36L31.6 27.6C31.31 27.9 30.91 28.06 30.5 28.06C30.08 28.06 29.68 27.9 29.39 27.6L20.27 18.48C19.65 17.87 19.65 16.88 20.27 16.27C20.88 15.65 21.87 15.65 22.48 16.27L30.5 24.28L34.63 20.15C35.24 19.54 36.23 19.54 36.84 20.15C37.46 20.76 37.46 21.75 36.84 22.36Z" fill="#FFFFFF" fill-opacity="1.000000" fill-rule="nonzero"/>
	</g>
</svg>
